<svg width="175" height="79" viewBox="0 0 175 79" fill="none" xmlns="http://www.w3.org/2000/svg">
<g filter="url(#filter0_d_1_3)">
<path d="M35.8537 0.181816H44.3082V50.0909C44.3082 54.5455 43.4901 58.3295 41.8537 61.4432C40.2173 64.5568 37.9105 66.9205 34.9332 68.5341C31.956 70.1477 28.4446 70.9545 24.3991 70.9545C20.581 70.9545 17.1832 70.2614 14.206 68.875C11.2287 67.4659 8.88778 65.4659 7.18324 62.875C5.47869 60.2841 4.62642 57.2045 4.62642 53.6364H12.9446C12.9446 55.6136 13.4332 57.3409 14.4105 58.8182C15.4105 60.2727 16.7741 61.4091 18.5014 62.2273C20.2287 63.0455 22.1946 63.4545 24.3991 63.4545C26.831 63.4545 28.8991 62.9432 30.6037 61.9205C32.3082 60.8977 33.6037 59.3977 34.4901 57.4205C35.3991 55.4205 35.8537 52.9773 35.8537 50.0909V0.181816ZM61.2514 70V0.181816H84.8423C90.3196 0.181816 94.7969 1.17045 98.2741 3.14772C101.774 5.10227 104.365 7.75 106.047 11.0909C107.729 14.4318 108.57 18.1591 108.57 22.2727C108.57 26.3864 107.729 30.125 106.047 33.4886C104.388 36.8523 101.82 39.5341 98.3423 41.5341C94.8651 43.5114 90.4105 44.5 84.9787 44.5H68.0696V37H84.706C88.456 37 91.4673 36.3523 93.7401 35.0568C96.0128 33.7614 97.6605 32.0114 98.6832 29.8068C99.7287 27.5795 100.251 25.0682 100.251 22.2727C100.251 19.4773 99.7287 16.9773 98.6832 14.7727C97.6605 12.5682 96.0014 10.8409 93.706 9.59091C91.4105 8.31818 88.3651 7.68182 84.5696 7.68182H69.706V70H61.2514ZM118.371 7.68182V0.181816H170.734V7.68182H148.78V70H140.325V7.68182H118.371Z" fill="#36BDC6"/>
</g>
<defs>
<filter id="filter0_d_1_3" x="0.626419" y="0.181816" width="174.108" height="78.7727" filterUnits="userSpaceOnUse" color-interpolation-filters="sRGB">
<feFlood flood-opacity="0" result="BackgroundImageFix"/>
<feColorMatrix in="SourceAlpha" type="matrix" values="0 0 0 0 0 0 0 0 0 0 0 0 0 0 0 0 0 0 127 0" result="hardAlpha"/>
<feOffset dy="4"/>
<feGaussianBlur stdDeviation="2"/>
<feComposite in2="hardAlpha" operator="out"/>
<feColorMatrix type="matrix" values="0 0 0 0 0 0 0 0 0 0 0 0 0 0 0 0 0 0 0.25 0"/>
<feBlend mode="normal" in2="BackgroundImageFix" result="effect1_dropShadow_1_3"/>
<feBlend mode="normal" in="SourceGraphic" in2="effect1_dropShadow_1_3" result="shape"/>
</filter>
</defs>
</svg>
