<svg width="72" height="36" viewBox="0 0 72 36" fill="none" xmlns="http://www.w3.org/2000/svg">
<g filter="url(#filter0_d_1_3)">
<path d="M16.4451 0.818181H19.6156V19.5341C19.6156 21.2045 19.3088 22.6236 18.6951 23.7912C18.0815 24.9588 17.2164 25.8452 16.1 26.4503C14.9835 27.0554 13.6667 27.358 12.1497 27.358C10.7179 27.358 9.44371 27.098 8.32724 26.5781C7.21076 26.0497 6.33292 25.2997 5.69371 24.3281C5.05451 23.3565 4.73491 22.2017 4.73491 20.8636H7.85423C7.85423 21.6051 8.03746 22.2528 8.40394 22.8068C8.77894 23.3523 9.29031 23.7784 9.93803 24.0852C10.5858 24.392 11.323 24.5455 12.1497 24.5455C13.0616 24.5455 13.8372 24.3537 14.4764 23.9702C15.1156 23.5866 15.6014 23.0241 15.9338 22.2827C16.2747 21.5327 16.4451 20.6165 16.4451 19.5341V0.818181ZM25.9693 27V0.818181H34.8159C36.8699 0.818181 38.5488 1.18892 39.8528 1.9304C41.1653 2.66335 42.1369 3.65625 42.7676 4.90909C43.3983 6.16193 43.7136 7.55966 43.7136 9.10227C43.7136 10.6449 43.3983 12.0469 42.7676 13.3082C42.1454 14.5696 41.1824 15.5753 39.8784 16.3253C38.5744 17.0668 36.9039 17.4375 34.867 17.4375H28.5261V14.625H34.7647C36.171 14.625 37.3002 14.3821 38.1525 13.8963C39.0048 13.4105 39.6227 12.7543 40.0062 11.9276C40.3983 11.0923 40.5943 10.1506 40.5943 9.10227C40.5943 8.05398 40.3983 7.11648 40.0062 6.28977C39.6227 5.46307 39.0005 4.81534 38.1397 4.34659C37.2789 3.86932 36.1369 3.63068 34.7136 3.63068H29.1397V27H25.9693ZM47.389 3.63068V0.818181H67.0254V3.63068H58.7924V27H55.622V3.63068H47.389Z" fill="#36BDC6"/>
</g>
<defs>
<filter id="filter0_d_1_3" x="0.734909" y="0.818176" width="70.2905" height="34.5398" filterUnits="userSpaceOnUse" color-interpolation-filters="sRGB">
<feFlood flood-opacity="0" result="BackgroundImageFix"/>
<feColorMatrix in="SourceAlpha" type="matrix" values="0 0 0 0 0 0 0 0 0 0 0 0 0 0 0 0 0 0 127 0" result="hardAlpha"/>
<feOffset dy="4"/>
<feGaussianBlur stdDeviation="2"/>
<feComposite in2="hardAlpha" operator="out"/>
<feColorMatrix type="matrix" values="0 0 0 0 0 0 0 0 0 0 0 0 0 0 0 0 0 0 0.25 0"/>
<feBlend mode="normal" in2="BackgroundImageFix" result="effect1_dropShadow_1_3"/>
<feBlend mode="normal" in="SourceGraphic" in2="effect1_dropShadow_1_3" result="shape"/>
</filter>
</defs>
</svg>
