<svg width="367" height="43" viewBox="0 0 367 43" fill="none" xmlns="http://www.w3.org/2000/svg">
<g filter="url(#filter0_d_1_3)">
<path d="M15.9647 0.818181H19.1351V19.5341C19.1351 21.2045 18.8283 22.6236 18.2147 23.7912C17.601 24.9588 16.736 25.8452 15.6195 26.4503C14.503 27.0554 13.1863 27.358 11.6692 27.358C10.2374 27.358 8.96325 27.098 7.84677 26.5781C6.73029 26.0497 5.85245 25.2997 5.21325 24.3281C4.57404 23.3565 4.25444 22.2017 4.25444 20.8636H7.37376C7.37376 21.6051 7.557 22.2528 7.92347 22.8068C8.29847 23.3523 8.80984 23.7784 9.45756 24.0852C10.1053 24.392 10.8425 24.5455 11.6692 24.5455C12.5811 24.5455 13.3567 24.3537 13.9959 23.9702C14.6351 23.5866 15.1209 23.0241 15.4533 22.2827C15.7942 21.5327 15.9647 20.6165 15.9647 19.5341V0.818181ZM25.0797 27V7.36364H28.0968V27H25.0797ZM26.6138 4.09091C26.0257 4.09091 25.5186 3.89062 25.0925 3.49006C24.6749 3.08949 24.4661 2.60795 24.4661 2.04545C24.4661 1.48295 24.6749 1.00142 25.0925 0.600851C25.5186 0.200284 26.0257 0 26.6138 0C27.2019 0 27.7047 0.200284 28.1223 0.600851C28.5485 1.00142 28.7615 1.48295 28.7615 2.04545C28.7615 2.60795 28.5485 3.08949 28.1223 3.49006C27.7047 3.89062 27.2019 4.09091 26.6138 4.09091ZM36.6397 15.1875V27H33.6227V7.36364H36.5375V10.4318H36.7931C37.2534 9.43466 37.9522 8.63352 38.8897 8.02841C39.8272 7.41477 41.0375 7.10795 42.5204 7.10795C43.85 7.10795 45.0133 7.38068 46.0105 7.92614C47.0076 8.46307 47.7832 9.28125 48.3372 10.3807C48.8912 11.4716 49.1681 12.8523 49.1681 14.5227V27H46.1511V14.7273C46.1511 13.1847 45.7505 11.983 44.9494 11.1222C44.1483 10.2528 43.0488 9.81818 41.6511 9.81818C40.688 9.81818 39.8272 10.027 39.0687 10.4446C38.3187 10.8622 37.7264 11.4716 37.2917 12.2727C36.8571 13.0739 36.6397 14.0455 36.6397 15.1875ZM62.0961 27.4091C60.4597 27.4091 59.0151 26.9957 57.7623 26.169C56.5094 25.3338 55.5293 24.1577 54.8219 22.6406C54.1145 21.1151 53.7608 19.3125 53.7608 17.233C53.7608 15.1705 54.1145 13.3807 54.8219 11.8636C55.5293 10.3466 56.5137 9.17472 57.775 8.34801C59.0364 7.52131 60.4938 7.10795 62.1472 7.10795C63.4256 7.10795 64.4355 7.32102 65.177 7.74716C65.927 8.16477 66.498 8.64205 66.8901 9.17898C67.2907 9.70739 67.6017 10.142 67.8233 10.483H68.079V0.818181H71.0961V27H68.1813V23.983H67.8233C67.6017 24.3409 67.2864 24.7926 66.8773 25.3381C66.4682 25.875 65.8844 26.3565 65.1259 26.7827C64.3674 27.2003 63.3574 27.4091 62.0961 27.4091ZM62.5051 24.6989C63.7154 24.6989 64.7381 24.3835 65.5733 23.7528C66.4086 23.1136 67.0435 22.2315 67.4782 21.1065C67.9128 19.973 68.1301 18.6648 68.1301 17.1818C68.1301 15.7159 67.9171 14.4332 67.4909 13.3338C67.0648 12.2259 66.4341 11.3651 65.5989 10.7514C64.7637 10.1293 63.7324 9.81818 62.5051 9.81818C61.2267 9.81818 60.1614 10.1463 59.3091 10.8026C58.4654 11.4503 57.8304 12.3324 57.4043 13.4489C56.9867 14.5568 56.7779 15.8011 56.7779 17.1818C56.7779 18.5795 56.9909 19.8494 57.4171 20.9915C57.8517 22.125 58.4909 23.0284 59.3347 23.7017C60.187 24.3665 61.2438 24.6989 62.5051 24.6989ZM89.4157 18.9716V7.36364H92.4327V27H89.4157V23.6761H89.2111C88.7509 24.6733 88.035 25.5213 87.0634 26.2202C86.0918 26.9105 84.8645 27.2557 83.3816 27.2557C82.1543 27.2557 81.0634 26.9872 80.1088 26.4503C79.1543 25.9048 78.4043 25.0866 77.8588 23.9957C77.3134 22.8963 77.0407 21.5114 77.0407 19.8409V7.36364H80.0577V19.6364C80.0577 21.0682 80.4583 22.2102 81.2594 23.0625C82.0691 23.9148 83.1003 24.3409 84.3532 24.3409C85.1032 24.3409 85.8659 24.1491 86.6415 23.7656C87.4256 23.3821 88.0819 22.794 88.6103 22.0014C89.1472 21.2088 89.4157 20.1989 89.4157 18.9716ZM108.493 27V0.818181H117.339C119.393 0.818181 121.072 1.18892 122.376 1.9304C123.689 2.66335 124.66 3.65625 125.291 4.90909C125.922 6.16193 126.237 7.55966 126.237 9.10227C126.237 10.6449 125.922 12.0469 125.291 13.3082C124.669 14.5696 123.706 15.5753 122.402 16.3253C121.098 17.0668 119.427 17.4375 117.39 17.4375H111.05V14.625H117.288C118.694 14.625 119.824 14.3821 120.676 13.8963C121.528 13.4105 122.146 12.7543 122.53 11.9276C122.922 11.0923 123.118 10.1506 123.118 9.10227C123.118 8.05398 122.922 7.11648 122.53 6.28977C122.146 5.46307 121.524 4.81534 120.663 4.34659C119.802 3.86932 118.66 3.63068 117.237 3.63068H111.663V27H108.493ZM130.935 27V7.36364H133.85V10.3295H134.055C134.412 9.35795 135.06 8.5696 135.998 7.96449C136.935 7.35937 137.992 7.05682 139.168 7.05682C139.39 7.05682 139.667 7.06108 139.999 7.0696C140.331 7.07812 140.583 7.09091 140.753 7.10795V10.1761C140.651 10.1506 140.417 10.1122 140.05 10.0611C139.692 10.0014 139.313 9.97159 138.912 9.97159C137.958 9.97159 137.106 10.1719 136.356 10.5724C135.614 10.9645 135.026 11.5099 134.591 12.2088C134.165 12.8991 133.952 13.6875 133.952 14.5739V27H130.935ZM151.709 27.4091C149.937 27.4091 148.381 26.9872 147.043 26.1435C145.714 25.2997 144.674 24.1193 143.924 22.6023C143.182 21.0852 142.812 19.3125 142.812 17.2841C142.812 15.2386 143.182 13.4531 143.924 11.9276C144.674 10.402 145.714 9.21733 147.043 8.37358C148.381 7.52983 149.937 7.10795 151.709 7.10795C153.482 7.10795 155.033 7.52983 156.363 8.37358C157.701 9.21733 158.741 10.402 159.482 11.9276C160.232 13.4531 160.607 15.2386 160.607 17.2841C160.607 19.3125 160.232 21.0852 159.482 22.6023C158.741 24.1193 157.701 25.2997 156.363 26.1435C155.033 26.9872 153.482 27.4091 151.709 27.4091ZM151.709 24.6989C153.056 24.6989 154.164 24.3537 155.033 23.6634C155.903 22.973 156.546 22.0653 156.964 20.9403C157.381 19.8153 157.59 18.5966 157.59 17.2841C157.59 15.9716 157.381 14.7486 156.964 13.6151C156.546 12.4815 155.903 11.5653 155.033 10.8665C154.164 10.1676 153.056 9.81818 151.709 9.81818C150.363 9.81818 149.255 10.1676 148.385 10.8665C147.516 11.5653 146.873 12.4815 146.455 13.6151C146.037 14.7486 145.829 15.9716 145.829 17.2841C145.829 18.5966 146.037 19.8153 146.455 20.9403C146.873 22.0653 147.516 22.973 148.385 23.6634C149.255 24.3537 150.363 24.6989 151.709 24.6989ZM165.213 7.36364H168.23V28.4318C168.23 29.642 168.021 30.6903 167.603 31.5767C167.194 32.4631 166.572 33.1491 165.737 33.6349C164.91 34.1207 163.866 34.3636 162.605 34.3636C162.502 34.3636 162.4 34.3636 162.298 34.3636C162.195 34.3636 162.093 34.3636 161.991 34.3636V31.5511C162.093 31.5511 162.187 31.5511 162.272 31.5511C162.357 31.5511 162.451 31.5511 162.553 31.5511C163.474 31.5511 164.147 31.2784 164.573 30.733C164.999 30.196 165.213 29.429 165.213 28.4318V7.36364ZM166.695 4.09091C166.107 4.09091 165.6 3.89062 165.174 3.49006C164.757 3.08949 164.548 2.60795 164.548 2.04545C164.548 1.48295 164.757 1.00142 165.174 0.600851C165.6 0.200284 166.107 0 166.695 0C167.284 0 167.786 0.200284 168.204 0.600851C168.63 1.00142 168.843 1.48295 168.843 2.04545C168.843 2.60795 168.63 3.08949 168.204 3.49006C167.786 3.89062 167.284 4.09091 166.695 4.09091ZM181.988 27.4091C180.096 27.4091 178.464 26.9915 177.092 26.1562C175.729 25.3125 174.676 24.1364 173.934 22.6278C173.202 21.1108 172.835 19.3466 172.835 17.3352C172.835 15.3239 173.202 13.5511 173.934 12.017C174.676 10.4744 175.707 9.27273 177.028 8.41193C178.358 7.54261 179.909 7.10795 181.682 7.10795C182.704 7.10795 183.714 7.27841 184.711 7.61932C185.709 7.96023 186.616 8.5142 187.434 9.28125C188.253 10.0398 188.905 11.0455 189.39 12.2983C189.876 13.5511 190.119 15.0937 190.119 16.9261V18.2045H174.983V15.5966H187.051C187.051 14.4886 186.829 13.5 186.386 12.6307C185.952 11.7614 185.329 11.0753 184.52 10.5724C183.719 10.0696 182.773 9.81818 181.682 9.81818C180.48 9.81818 179.44 10.1165 178.562 10.7131C177.693 11.3011 177.024 12.0682 176.555 13.0142C176.086 13.9602 175.852 14.9744 175.852 16.0568V17.7955C175.852 19.2784 176.108 20.5355 176.619 21.5668C177.139 22.5895 177.859 23.3693 178.78 23.9062C179.7 24.4347 180.77 24.6989 181.988 24.6989C182.781 24.6989 183.497 24.5881 184.136 24.3665C184.784 24.1364 185.342 23.7955 185.811 23.3438C186.28 22.8835 186.642 22.3125 186.898 21.6307L189.812 22.4489C189.506 23.4375 188.99 24.3068 188.265 25.0568C187.541 25.7983 186.646 26.3778 185.581 26.7955C184.515 27.2045 183.318 27.4091 181.988 27.4091ZM202.686 27.4091C200.845 27.4091 199.26 26.9744 197.93 26.1051C196.601 25.2358 195.578 24.0384 194.862 22.5128C194.146 20.9872 193.788 19.2443 193.788 17.2841C193.788 15.2898 194.155 13.5298 194.888 12.0043C195.629 10.4702 196.66 9.27273 197.981 8.41193C199.311 7.54261 200.862 7.10795 202.635 7.10795C204.015 7.10795 205.26 7.36364 206.368 7.875C207.476 8.38636 208.383 9.10227 209.091 10.0227C209.798 10.9432 210.237 12.017 210.407 13.2443H207.39C207.16 12.3494 206.649 11.5568 205.856 10.8665C205.072 10.1676 204.015 9.81818 202.686 9.81818C201.51 9.81818 200.479 10.125 199.592 10.7386C198.714 11.3437 198.028 12.2003 197.534 13.3082C197.048 14.4077 196.805 15.6989 196.805 17.1818C196.805 18.6989 197.044 20.0199 197.521 21.1449C198.007 22.2699 198.689 23.1435 199.567 23.7656C200.453 24.3878 201.493 24.6989 202.686 24.6989C203.47 24.6989 204.182 24.5625 204.821 24.2898C205.46 24.017 206.001 23.625 206.444 23.1136C206.888 22.6023 207.203 21.9886 207.39 21.2727H210.407C210.237 22.4318 209.815 23.4759 209.142 24.4048C208.477 25.3253 207.595 26.0582 206.496 26.6037C205.405 27.1406 204.135 27.4091 202.686 27.4091ZM223.358 7.36364V9.92045H213.182V7.36364H223.358ZM216.148 2.65909H219.165V21.375C219.165 22.2273 219.288 22.8665 219.535 23.2926C219.791 23.7102 220.115 23.9915 220.507 24.1364C220.907 24.2727 221.329 24.3409 221.773 24.3409C222.105 24.3409 222.378 24.3239 222.591 24.2898C222.804 24.2472 222.974 24.2131 223.102 24.1875L223.716 26.8977C223.511 26.9744 223.226 27.0511 222.859 27.1278C222.493 27.2131 222.028 27.2557 221.466 27.2557C220.613 27.2557 219.778 27.0724 218.96 26.706C218.15 26.3395 217.477 25.7812 216.94 25.0312C216.412 24.2812 216.148 23.3352 216.148 22.1932V2.65909ZM236.998 3.63068V0.818181H256.635V3.63068H248.402V27H245.231V3.63068H236.998ZM259.08 27V7.36364H261.994V10.3295H262.199C262.557 9.35795 263.205 8.5696 264.142 7.96449C265.08 7.35937 266.137 7.05682 267.313 7.05682C267.534 7.05682 267.811 7.06108 268.144 7.0696C268.476 7.07812 268.727 7.09091 268.898 7.10795V10.1761C268.796 10.1506 268.561 10.1122 268.195 10.0611C267.837 10.0014 267.458 9.97159 267.057 9.97159C266.102 9.97159 265.25 10.1719 264.5 10.5724C263.759 10.9645 263.171 11.5099 262.736 12.2088C262.31 12.8991 262.097 13.6875 262.097 14.5739V27H259.08ZM278.253 27.4602C277.008 27.4602 275.879 27.2259 274.865 26.7571C273.851 26.2798 273.045 25.5938 272.449 24.6989C271.852 23.7955 271.554 22.7045 271.554 21.4261C271.554 20.3011 271.775 19.3892 272.219 18.6903C272.662 17.983 273.254 17.429 273.996 17.0284C274.737 16.6278 275.555 16.3295 276.45 16.1335C277.354 15.929 278.261 15.767 279.173 15.6477C280.366 15.4943 281.334 15.3793 282.075 15.3026C282.825 15.2173 283.371 15.0767 283.711 14.8807C284.061 14.6847 284.236 14.3437 284.236 13.858V13.7557C284.236 12.4943 283.89 11.5142 283.2 10.8153C282.518 10.1165 281.483 9.76705 280.094 9.76705C278.653 9.76705 277.524 10.0824 276.706 10.7131C275.888 11.3437 275.312 12.017 274.98 12.733L272.116 11.7102C272.628 10.517 273.309 9.58807 274.162 8.9233C275.023 8.25 275.96 7.78125 276.974 7.51705C277.997 7.24432 279.003 7.10795 279.991 7.10795C280.622 7.10795 281.346 7.18466 282.165 7.33807C282.991 7.48295 283.788 7.78551 284.555 8.24574C285.331 8.70597 285.974 9.40057 286.486 10.3295C286.997 11.2585 287.253 12.5028 287.253 14.0625V27H284.236V24.3409H284.082C283.878 24.767 283.537 25.223 283.059 25.7088C282.582 26.1946 281.947 26.608 281.155 26.9489C280.362 27.2898 279.395 27.4602 278.253 27.4602ZM278.713 24.75C279.906 24.75 280.912 24.5156 281.73 24.0469C282.557 23.5781 283.179 22.973 283.596 22.2315C284.023 21.4901 284.236 20.7102 284.236 19.892V17.1307C284.108 17.2841 283.827 17.4247 283.392 17.5526C282.966 17.6719 282.471 17.7784 281.909 17.8722C281.355 17.9574 280.814 18.0341 280.285 18.1023C279.765 18.1619 279.344 18.2131 279.02 18.2557C278.236 18.358 277.503 18.5241 276.821 18.7543C276.148 18.9759 275.602 19.3125 275.184 19.7642C274.775 20.2074 274.571 20.8125 274.571 21.5795C274.571 22.6278 274.959 23.4205 275.734 23.9574C276.518 24.4858 277.511 24.75 278.713 24.75ZM300.737 27.4091C298.896 27.4091 297.311 26.9744 295.981 26.1051C294.651 25.2358 293.629 24.0384 292.913 22.5128C292.197 20.9872 291.839 19.2443 291.839 17.2841C291.839 15.2898 292.205 13.5298 292.938 12.0043C293.68 10.4702 294.711 9.27273 296.032 8.41193C297.362 7.54261 298.913 7.10795 300.686 7.10795C302.066 7.10795 303.311 7.36364 304.419 7.875C305.526 8.38636 306.434 9.10227 307.142 10.0227C307.849 10.9432 308.288 12.017 308.458 13.2443H305.441C305.211 12.3494 304.7 11.5568 303.907 10.8665C303.123 10.1676 302.066 9.81818 300.737 9.81818C299.561 9.81818 298.529 10.125 297.643 10.7386C296.765 11.3437 296.079 12.2003 295.585 13.3082C295.099 14.4077 294.856 15.6989 294.856 17.1818C294.856 18.6989 295.095 20.0199 295.572 21.1449C296.058 22.2699 296.74 23.1435 297.617 23.7656C298.504 24.3878 299.544 24.6989 300.737 24.6989C301.521 24.6989 302.232 24.5625 302.872 24.2898C303.511 24.017 304.052 23.625 304.495 23.1136C304.938 22.6023 305.254 21.9886 305.441 21.2727H308.458C308.288 22.4318 307.866 23.4759 307.193 24.4048C306.528 25.3253 305.646 26.0582 304.546 26.6037C303.455 27.1406 302.186 27.4091 300.737 27.4091ZM315.681 19.8409L315.63 16.108H316.244L324.835 7.36364H328.568L319.414 16.6193H319.159L315.681 19.8409ZM312.869 27V0.818181H315.886V27H312.869ZM325.346 27L317.676 17.2841L319.823 15.1875L329.181 27H325.346ZM339.875 27.4091C337.983 27.4091 336.351 26.9915 334.979 26.1562C333.615 25.3125 332.563 24.1364 331.821 22.6278C331.088 21.1108 330.722 19.3466 330.722 17.3352C330.722 15.3239 331.088 13.5511 331.821 12.017C332.563 10.4744 333.594 9.27273 334.915 8.41193C336.244 7.54261 337.796 7.10795 339.568 7.10795C340.591 7.10795 341.601 7.27841 342.598 7.61932C343.595 7.96023 344.503 8.5142 345.321 9.28125C346.139 10.0398 346.791 11.0455 347.277 12.2983C347.763 13.5511 348.006 15.0937 348.006 16.9261V18.2045H332.869V15.5966H344.938C344.938 14.4886 344.716 13.5 344.273 12.6307C343.838 11.7614 343.216 11.0753 342.406 10.5724C341.605 10.0696 340.659 9.81818 339.568 9.81818C338.367 9.81818 337.327 10.1165 336.449 10.7131C335.58 11.3011 334.911 12.0682 334.442 13.0142C333.973 13.9602 333.739 14.9744 333.739 16.0568V17.7955C333.739 19.2784 333.994 20.5355 334.506 21.5668C335.026 22.5895 335.746 23.3693 336.666 23.9062C337.587 24.4347 338.656 24.6989 339.875 24.6989C340.668 24.6989 341.384 24.5881 342.023 24.3665C342.671 24.1364 343.229 23.7955 343.698 23.3438C344.166 22.8835 344.529 22.3125 344.784 21.6307L347.699 22.4489C347.392 23.4375 346.877 24.3068 346.152 25.0568C345.428 25.7983 344.533 26.3778 343.468 26.7955C342.402 27.2045 341.205 27.4091 339.875 27.4091ZM352.595 27V7.36364H355.51V10.3295H355.715C356.073 9.35795 356.72 8.5696 357.658 7.96449C358.595 7.35937 359.652 7.05682 360.828 7.05682C361.05 7.05682 361.327 7.06108 361.659 7.0696C361.992 7.07812 362.243 7.09091 362.414 7.10795V10.1761C362.311 10.1506 362.077 10.1122 361.71 10.0611C361.352 10.0014 360.973 9.97159 360.573 9.97159C359.618 9.97159 358.766 10.1719 358.016 10.5724C357.274 10.9645 356.686 11.5099 356.252 12.2088C355.825 12.8991 355.612 13.6875 355.612 14.5739V27H352.595Z" fill="#36BDC6"/>
</g>
<defs>
<filter id="filter0_d_1_3" x="0.25444" y="0" width="366.159" height="42.3636" filterUnits="userSpaceOnUse" color-interpolation-filters="sRGB">
<feFlood flood-opacity="0" result="BackgroundImageFix"/>
<feColorMatrix in="SourceAlpha" type="matrix" values="0 0 0 0 0 0 0 0 0 0 0 0 0 0 0 0 0 0 127 0" result="hardAlpha"/>
<feOffset dy="4"/>
<feGaussianBlur stdDeviation="2"/>
<feComposite in2="hardAlpha" operator="out"/>
<feColorMatrix type="matrix" values="0 0 0 0 0 0 0 0 0 0 0 0 0 0 0 0 0 0 0.25 0"/>
<feBlend mode="normal" in2="BackgroundImageFix" result="effect1_dropShadow_1_3"/>
<feBlend mode="normal" in="SourceGraphic" in2="effect1_dropShadow_1_3" result="shape"/>
</filter>
</defs>
</svg>
